<svg xmlns="http://www.w3.org/2000/svg" version="1.1" xmlns:xlink="http://www.w3.org/1999/xlink" xmlns:svgjs="http://svgjs.dev/svgjs" width="180" height="180"><svg width="180" height="180" viewBox="0 0 180 180" fill="none" xmlns="http://www.w3.org/2000/svg">
<rect width="180" height="180" rx="52" fill="#270A33"></rect>
<path d="M91.8755 77.1395H88.1236C85.687 77.1395 83.713 79.1148 83.713 81.5516V89.9355C83.713 92.3722 85.687 94.3486 88.1236 94.3486H91.8755C94.3122 94.3486 96.2862 92.3722 96.2862 89.9355V81.5516C96.2862 79.1148 94.3122 77.1395 91.8755 77.1395Z" fill="#B700FF"></path>
<path d="M84.7035 118.498C84.7035 126.118 88.0732 126.118 89.9994 126.118C91.9232 126.118 95.2927 126.118 95.2927 118.498C95.2927 110.879 95.2927 96.3339 95.2927 96.3339H84.7035C84.7035 96.3339 84.7035 110.879 84.7035 118.498Z" fill="#B700FF"></path>
<path d="M78.0874 61.248C78.6961 61.248 79.2644 61.0996 79.7699 60.8394C81.7741 63.6318 83.386 66.6446 84.5579 69.1391C85.3047 70.7308 85.873 72.1126 86.2553 73.0933C86.4464 73.5849 86.5898 73.976 86.6854 74.2411C86.7333 74.3744 86.7683 74.4763 86.791 74.5454C86.8036 74.5792 86.8137 74.6045 86.8188 74.6208L86.8238 74.6396L86.8262 74.6459L88.2899 74.1568C88.2846 74.1367 87.4851 71.744 85.9562 68.4838C84.7441 65.9038 83.0768 62.783 80.9671 59.8584C81.4699 59.2286 81.7718 58.4326 81.7718 57.5651C81.7718 55.5307 80.1222 53.8822 78.0878 53.8822C76.0534 53.8822 74.4063 55.5307 74.4063 57.5651C74.4059 59.5996 76.0531 61.248 78.0874 61.248Z" fill="#B700FF"></path>
<path d="M93.1729 74.6399C93.2157 74.5181 94.018 72.1505 95.5116 68.9908C96.676 66.5251 98.2665 63.5767 100.23 60.8396C100.733 61.0998 101.304 61.2481 101.913 61.2481C103.944 61.2481 105.594 59.5998 105.594 57.5654C105.594 55.5311 103.945 53.8826 101.913 53.8826C99.8783 53.8826 98.2287 55.5311 98.2287 57.5654C98.2287 58.433 98.5305 59.2289 99.0334 59.8588C96.9224 62.7834 95.2551 65.9041 94.0429 68.4841C92.5114 71.7444 91.7144 74.1371 91.7067 74.1571L93.1727 74.6463V74.6399H93.1729Z" fill="#B700FF"></path>
<path d="M80.9893 98.3193C81.1202 98.3092 81.2811 98.3006 81.4596 98.2929V82.4027L80.9893 81.7715C80.9893 81.7715 62.4662 57.9448 52.888 58.6063C47.011 59.0111 38.778 70.3449 43.3069 83.757C47.778 96.9954 53.5744 100.434 80.9893 98.3193Z" fill="#B700FF"></path>
<path d="M68.2751 101.25C62.8785 101.25 58.5861 100.805 55.0907 99.8547L54.1652 100.452C40.752 113.689 50.1317 127.55 62.4662 125.604C72.9197 123.954 81.1603 112.588 82.3421 110.66V100.651C82.2491 100.653 81.3011 100.658 81.261 100.662C76.1334 101.057 71.8862 101.25 68.2751 101.25Z" fill="#B700FF"></path>
<path d="M127.112 58.6064C117.532 57.9449 99.0109 81.7717 99.0109 81.7717L98.5406 82.4028V98.293C98.7191 98.3005 98.8776 98.3093 99.0109 98.3195C126.423 100.434 132.222 96.9955 136.693 83.7571C141.222 70.3449 132.987 59.011 127.112 58.6064Z" fill="#B700FF"></path>
<path d="M124.91 99.8546C121.414 100.805 117.122 101.25 111.725 101.25C108.114 101.25 103.867 101.057 98.7395 100.662C98.6967 100.658 97.7511 100.653 97.658 100.65V110.66C98.8373 112.587 107.081 123.954 117.531 125.603C129.868 127.55 139.248 113.689 125.835 100.452L124.91 99.8546Z" fill="#B700FF"></path>
</svg><style>@media (prefers-color-scheme: light) { :root { filter: none; } }
@media (prefers-color-scheme: dark) { :root { filter: none; } }
</style></svg>