<svg width="256" height="256" viewBox="0 0 256 256" fill="none" xmlns="http://www.w3.org/2000/svg">
<rect width="256" height="256" rx="60" fill="black"/>
<path d="M135.165 203.82C140.381 198.116 143.776 192.45 147.552 183.936C176.996 186.328 191.661 181.848 216.986 171.874C187.738 191.003 169.782 197.881 135.165 203.82Z" fill="#5F1CEF"/>
<path d="M104.522 171.876C70.9462 148.242 52.0393 104.561 67.0346 49.9587C123.755 68.8657 160.917 114.666 139.728 183.937C123.266 209.527 70.2942 215.069 39 188.99C62.3499 171.952 81.2148 168.29 104.522 171.876Z" fill="#5F1CEF"/>
<path d="M149.507 179.045C155.701 161.768 157.005 122.324 141.684 98.6908C164.339 78.4799 191.233 72.1233 216.986 72.1233C217.801 130.148 184.061 171.222 149.507 179.045Z" fill="#5F1CEF"/>
</svg>
