<svg width="1080" height="1080" viewBox="0 0 1080 1080" fill="none" xmlns="http://www.w3.org/2000/svg">
<rect x="1.52588e-05" width="1080" height="1080" rx="196" fill="black"/>
<path d="M387.064 263.615C387.064 237.738 395.358 217.834 411.945 203.9C429.196 189.967 454.077 183 486.589 183V443.754C479.29 451.052 471.66 460.673 463.698 472.616L468.674 476.597C489.243 448.067 514.787 425.176 545.308 407.925C575.829 390.674 609.335 382.049 645.828 382.049C698.907 382.049 741.039 398.304 772.224 430.816C803.408 462.664 819 503.8 819 554.226V829.909C819 853.131 810.706 870.382 794.119 881.661C778.195 892.277 753.646 897.585 720.471 897.585V566.169C720.471 536.975 711.845 513.421 694.595 495.507C677.344 477.592 652.131 468.635 618.956 468.635C595.734 468.635 573.838 473.943 553.27 484.559C532.702 494.511 516.446 508.113 504.503 525.364C492.56 542.615 486.589 561.524 486.589 582.093L486.589 829.909C486.589 853.131 478.295 870.382 461.707 881.661C445.12 892.277 420.239 897.585 387.064 897.585L387.064 263.615Z" fill="white"/>
<path d="M261 183H314.524C339.929 183 360.524 203.595 360.524 229L360.524 896.258H307C281.595 896.258 261 875.663 261 850.258L261 183Z" fill="white"/>
</svg>
